{"accessors" : [{"bufferView" : 0, "byteOffset" : 0, "componentType" : 5123, "count" : 72, "type" : "SCALAR", "max" : [71], "min" : [0]}, {"bufferView" : 1, "byteOffset" : 0, "componentType" : 5126, "count" : 72, "type" : "VEC3", "max" : [21.251571655273438, 26.16571617126465, -109.32703399658203], "min" : [-19.637126922607422, 22.639448165893555, -115.10308074951172], "name" : "POSITION"}, {"bufferView" : 1, "byteOffset" : 12, "componentType" : 5126, "count" : 72, "type" : "VEC3", "max" : [1.0000044107437134, 1.0000044107437134, 1.0000044107437134], "min" : [-1.0000044107437134, -1.0000044107437134, -1.0000044107437134], "name" : "NORMAL"}, {"bufferView" : 1, "byteOffset" : 24, "componentType" : 5126, "count" : 72, "type" : "VEC2", "max" : [0.875, -0], "min" : [0.125, -1], "name" : "TEXCOORD_0"}, {"bufferView" : 0, "byteOffset" : 144, "componentType" : 5123, "count" : 144, "type" : "SCALAR", "max" : [143], "min" : [0]}, {"bufferView" : 2, "byteOffset" : 0, "componentType" : 5126, "count" : 144, "type" : "VEC3", "max" : [21.251571655273438, 26.16571617126465, -113.68046569824219], "min" : [-19.637126922607422, 22.639448165893555, -122.3878173828125], "name" : "POSITION"}, {"bufferView" : 2, "byteOffset" : 12, "componentType" : 5126, "count" : 144, "type" : "VEC3", "max" : [1.0000044107437134, 1.0000044107437134, 1.0000044107437134], "min" : [-1.0000044107437134, -1.0000044107437134, -1.0000044107437134], "name" : "NORMAL"}, {"bufferView" : 2, "byteOffset" : 24, "componentType" : 5126, "count" : 144, "type" : "VEC2", "max" : [0.875, -0], "min" : [0.125, -1], "name" : "TEXCOORD_0"}, {"bufferView" : 0, "byteOffset" : 432, "componentType" : 5123, "count" : 6978, "type" : "SCALAR", "max" : [6977], "min" : [0]}, {"bufferView" : 3, "byteOffset" : 0, "componentType" : 5126, "count" : 6978, "type" : "VEC3", "max" : [50.98881912231445, 77.99900817871094, 113.26288604736328], "min" : [-50.98830032348633, 0.43758800625801086, -117.2643814086914], "name" : "POSITION"}, {"bufferView" : 3, "byteOffset" : 12, "componentType" : 5126, "count" : 6978, "type" : "VEC3", "max" : [1.0000044107437134, 1.0000044107437134, 1.0000044107437134], "min" : [-1.0000044107437134, -1.0000044107437134, -1.0000041723251343], "name" : "NORMAL"}, {"bufferView" : 3, "byteOffset" : 24, "componentType" : 5126, "count" : 6978, "type" : "VEC2", "max" : [0.9958999752998352, -0.0010000000474974513], "min" : [0.0010000000474974513, -0.9958999752998352], "name" : "TEXCOORD_0"}], "asset" : {"generator" : "Aspose.3D 23.2", "version" : "2.0"}, "buffers" : [{"uri" : "data:application/octet-stream;base64,", "byteLength" : 244612}], "bufferViews" : [{"buffer" : 0, "byteOffset" : 0, "byteLength" : 14388, "target" : 34963}, {"buffer" : 0, "byteOffset" : 14392, "byteLength" : 2304, "byteStride" : 32, "target" : 34962}, {"buffer" : 0, "byteOffset" : 16700, "byteLength" : 4608, "byteStride" : 32, "target" : 34962}, {"buffer" : 0, "byteOffset" : 21312, "byteLength" : 223296, "byteStride" : 32, "target" : 34962}], "images" : [{"uri" : "data:image/png;base64,"}, {"uri" : "data:image/png;base64,"}], "materials" : [{"name" : "taxiob:pCube7SG1", "pbrMetallicRoughness" : {"baseColorFactor" : [0, 0, 0, 1], "metallicFactor" : 0, "roughnessFactor" : 0}, "emissiveFactor" : [0, 0, 0], "alphaMode" : "OPAQUE", "doubleSided" : false}, {"name" : "taxiob:pCube7SG3", "pbrMetallicRoughness" : {"baseColorFactor" : [0.7699999809265137, 0.7699999809265137, 0.7699999809265137, 1], "metallicFactor" : 0, "roughnessFactor" : 0}, "emissiveFactor" : [0, 0, 0], "alphaMode" : "OPAQUE", "doubleSided" : false}, {"name" : "lambert3", "pbrMetallicRoughness" : {"baseColorFactor" : [1, 1, 1, 1], "baseColorTexture" : {"index" : 1, "texCoord" : 0}, "metallicFactor" : 0, "roughnessFactor" : 0}, "normalTexture" : {"index" : 0, "texCoord" : 0, "scale" : 1}, "emissiveFactor" : [0, 0, 0], "alphaMode" : "OPAQUE", "doubleSided" : false}], "meshes" : [{"primitives" : [{"attributes" : {"POSITION" : 1, "NORMAL" : 2, "TEXCOORD_0" : 3}, "indices" : 0, "material" : 0, "mode" : 4}, {"attributes" : {"POSITION" : 5, "NORMAL" : 6, "TEXCOORD_0" : 7}, "indices" : 4, "material" : 1, "mode" : 4}, {"attributes" : {"POSITION" : 9, "NORMAL" : 10, "TEXCOORD_0" : 11}, "indices" : 8, "material" : 2, "mode" : 4}], "name" : ""}], "nodes" : [{"matrix" : [0.10640897436696689, 0, 0, 0, 0, 0.10640897436696689, 0, 0, 0, 0, 0.10640897436696689, 0, 0, 0, 0, 1], "mesh" : 0, "name" : "taxiob1"}], "samplers" : [{"magFilter" : 9729, "minFilter" : 9729, "wrapS" : 10497, "wrapT" : 10497}, {"magFilter" : 9729, "minFilter" : 9729, "wrapS" : 10497, "wrapT" : 10497}], "scene" : 0, "scenes" : [{"nodes" : [0]}], "textures" : [{"sampler" : 0, "source" : 0, "name" : "file2"}, {"sampler" : 1, "source" : 1, "name" : "file1"}]}